<!-- Generated by IcoMoon.io -->
<svg version="1.1" xmlns="http://www.w3.org/2000/svg" width="32" height="32" viewBox="0 0 32 32">
<title>more</title>
<path d="M16 21.979c1.438 0 2.688 1.25 2.688 2.688s-1.25 2.688-2.688 2.688-2.688-1.25-2.688-2.688 1.25-2.688 2.688-2.688zM16 13.979c1.438 0 2.688 1.25 2.688 2.688s-1.25 2.688-2.688 2.688-2.688-1.25-2.688-2.688 1.25-2.688 2.688-2.688zM16 11.354c-1.438 0-2.688-1.25-2.688-2.688s1.25-2.688 2.688-2.688 2.688 1.25 2.688 2.688-1.25 2.688-2.688 2.688z"></path>
</svg>
