<!-- Generated by IcoMoon.io -->
<svg version="1.1" xmlns="http://www.w3.org/2000/svg" width="32" height="32" viewBox="0 0 32 32">
<title>arrow-left</title>
<path d="M6.475 20.601c0.139 0.139 0.225 0.332 0.225 0.544 0 0.425-0.345 0.77-0.77 0.77-0.213 0-0.405-0.086-0.544-0.225l-5.161-5.161c-0.139-0.139-0.226-0.332-0.226-0.544s0.086-0.405 0.226-0.544l5.161-5.161c0.139-0.139 0.332-0.225 0.544-0.225 0.425 0 0.77 0.345 0.77 0.77 0 0.213-0.086 0.405-0.225 0.544l-3.847 3.847h28.415c0.425 0 0.77 0.345 0.77 0.77s-0.345 0.77-0.77 0.77h-28.415z"></path>
</svg>
