<!-- Generated by IcoMoon.io -->
<svg version="1.1" xmlns="http://www.w3.org/2000/svg" width="32" height="32" viewBox="0 0 32 32">
<title>arrow-right</title>
<path d="M25.333 20.605c-0.139 0.139-0.226 0.332-0.226 0.545 0 0.425 0.345 0.77 0.77 0.77 0.213 0 0.405-0.086 0.545-0.226l5.164-5.164c0.139-0.139 0.226-0.332 0.226-0.545s-0.086-0.405-0.226-0.545l-5.164-5.164c-0.139-0.139-0.332-0.226-0.545-0.226-0.425 0-0.77 0.345-0.77 0.77 0 0.213 0.086 0.405 0.226 0.545l3.85 3.85h-28.413c-0.425 0-0.77 0.345-0.77 0.77s0.345 0.77 0.77 0.77h28.431z"></path>
</svg>
