<?xml version="1.0" encoding="utf-8"?>
<!-- Generator: Adobe Illustrator 16.0.0, SVG Export Plug-In . SVG Version: 6.00 Build 0)  -->
<!DOCTYPE svg PUBLIC "-//W3C//DTD SVG 1.1//EN" "http://www.w3.org/Graphics/SVG/1.1/DTD/svg11.dtd">
<svg version="1.1" id="Ebene_1" xmlns="http://www.w3.org/2000/svg" xmlns:xlink="http://www.w3.org/1999/xlink" x="0px" y="0px"
	 width="198.159px" height="42.678px" viewBox="14.257 -5.691 198.159 42.678"
	 enable-background="new 14.257 -5.691 198.159 42.678" xml:space="preserve">
<g>
	<path fill="#909986" d="M38.194,7.691c0-5.445-3.493-11.854-3.493-11.854c-0.79-1.448-2.605-1.958-4.034-1.133L16.855,2.68
		c-1.429,0.824-2.598,2.851-2.598,4.5v16.458c0,1.649,1.169,3.676,2.598,4.5l1.573,0.908c1.429,0.825,3.704,0.727,5.055-0.224
		C23.483,28.825,38.194,18.511,38.194,7.691z"/>
	<path opacity="0.8" fill="#909986" d="M39.23-3.861c-1.429-0.825-2.066-0.26-1.417,1.257c0,0,2.372,5.534,2.372,10.294
		c0,11.08-14.478,22.353-14.478,22.353c-1.302,1.015-1.198,2.519,0.231,3.345l5.17,2.982c1.429,0.824,3.767,0.824,5.196,0
		l14.254-8.23c1.429-0.824,2.598-2.851,2.598-4.5V7.181c0-1.65-1.169-3.676-2.598-4.5L39.23-3.861z"/>
</g>
<g>
	<path fill="#444444" d="M74.598,4.428c1.398,0.643,2.527,1.535,3.384,2.678c0.229,0.371,0.343,0.7,0.343,0.984
		c0,0.486-0.229,0.872-0.686,1.157c-0.199,0.144-0.471,0.214-0.813,0.214c-0.6,0-1.1-0.214-1.5-0.644
		c-1.399-1.599-3.313-2.398-5.74-2.398c-1.571,0-2.827,0.32-3.771,0.964c-0.942,0.644-1.413,1.45-1.413,2.421
		c0,1.027,0.442,1.85,1.328,2.463c0.885,0.614,2.456,1.106,4.712,1.479c3.056,0.514,5.241,1.351,6.555,2.506
		c1.313,1.156,1.971,2.591,1.971,4.307c0,1.313-0.393,2.483-1.178,3.512c-0.786,1.029-1.878,1.828-3.277,2.4
		c-1.399,0.568-2.985,0.854-4.756,0.854s-3.47-0.301-5.098-0.898c-1.628-0.599-2.942-1.439-3.941-2.525
		c-0.286-0.344-0.429-0.672-0.429-0.985c0-0.483,0.229-0.914,0.686-1.285c0.343-0.258,0.699-0.385,1.071-0.385
		c0.485,0,0.899,0.198,1.242,0.6c0.686,0.8,1.592,1.414,2.721,1.843c1.128,0.429,2.378,0.645,3.748,0.645
		c1.999,0,3.499-0.344,4.499-1.026c0.999-0.687,1.514-1.587,1.542-2.699c0-1.028-0.5-1.886-1.499-2.569
		c-1-0.687-2.586-1.201-4.756-1.543c-2.8-0.457-4.892-1.25-6.276-2.378c-1.386-1.129-2.078-2.492-2.078-4.092
		c0-2.084,0.807-3.697,2.421-4.841c1.613-1.143,3.634-1.714,6.063-1.714C71.556,3.464,73.198,3.785,74.598,4.428z"/>
	<path fill="#444444" d="M96.104,24.285c0.285,0.313,0.428,0.715,0.428,1.197c0,0.457-0.171,0.846-0.514,1.156
		c-0.343,0.315-0.771,0.473-1.285,0.473h-0.9c-1.514,0-2.87-0.363-4.069-1.094c-1.2-0.728-2.136-1.713-2.807-2.955
		s-1.007-2.646-1.007-4.222V7.406h-2.784c-0.457,0-0.821-0.135-1.093-0.406c-0.271-0.271-0.407-0.605-0.407-1.007
		c0-0.429,0.136-0.778,0.407-1.05c0.271-0.271,0.636-0.406,1.093-0.406h2.784v-6.641c0-0.484,0.15-0.885,0.45-1.2
		c0.3-0.313,0.692-0.471,1.178-0.471c0.486,0,0.886,0.156,1.2,0.471c0.313,0.314,0.471,0.715,0.471,1.2v6.641h4.842
		c0.456,0,0.82,0.136,1.092,0.406c0.271,0.271,0.407,0.621,0.407,1.05c0,0.399-0.136,0.735-0.407,1.007
		C94.91,7.27,94.546,7.406,94.09,7.406h-4.842v11.438c0,1.456,0.429,2.649,1.285,3.577c0.857,0.93,1.956,1.395,3.299,1.395h1.157
		C95.446,23.813,95.818,23.97,96.104,24.285z"/>
	<path fill="#444444" d="M115.318,3.892c0.699,0.313,1.052,0.757,1.052,1.328c0,0.171-0.017,0.3-0.043,0.386
		c-0.115,0.399-0.293,0.671-0.535,0.813c-0.244,0.144-0.578,0.214-1.008,0.214c-0.259,0-0.699-0.027-1.328-0.085
		c-0.229-0.027-0.569-0.043-1.026-0.043c-2.144,0-3.894,0.572-5.248,1.715c-1.355,1.143-2.035,2.628-2.035,4.455v12.811
		c0,0.515-0.144,0.914-0.429,1.199c-0.286,0.287-0.688,0.43-1.2,0.43c-0.515,0-0.914-0.143-1.199-0.43
		c-0.285-0.285-0.428-0.688-0.428-1.199V5.306c0-0.515,0.143-0.914,0.428-1.2c0.285-0.285,0.688-0.429,1.199-0.429
		c0.516,0,0.914,0.144,1.2,0.429c0.285,0.286,0.429,0.687,0.429,1.2v1.885c0.828-1.199,1.886-2.127,3.17-2.785
		c1.285-0.656,2.67-0.984,4.156-0.984C113.667,3.421,114.618,3.578,115.318,3.892z"/>
	<path fill="#444444" d="M136.523,5.028c1.813,1.043,3.242,2.479,4.285,4.307s1.563,3.855,1.563,6.083v10.065
		c0,0.457-0.158,0.846-0.473,1.156c-0.314,0.315-0.715,0.473-1.199,0.473c-0.486,0-0.887-0.148-1.199-0.449s-0.473-0.689-0.473-1.18
		v-2.568c-1,1.371-2.271,2.447-3.813,3.232c-1.541,0.787-3.238,1.18-5.098,1.18c-2.172,0-4.135-0.521-5.891-1.563
		c-1.758-1.043-3.144-2.472-4.156-4.285c-1.014-1.813-1.521-3.834-1.521-6.063s0.521-4.255,1.563-6.083
		c1.045-1.828,2.473-3.264,4.285-4.307c1.813-1.042,3.834-1.563,6.063-1.563C132.689,3.464,134.709,3.986,136.523,5.028z
		 M134.875,23.172c1.313-0.771,2.35-1.836,3.104-3.19c0.758-1.356,1.139-2.877,1.139-4.563s-0.381-3.206-1.139-4.563
		c-0.756-1.356-1.793-2.427-3.104-3.213c-1.313-0.785-2.785-1.179-4.412-1.179c-1.629,0-3.105,0.394-4.438,1.179
		c-1.326,0.786-2.371,1.856-3.127,3.213s-1.135,2.877-1.135,4.563c0,1.688,0.379,3.206,1.135,4.563
		c0.756,1.354,1.801,2.42,3.127,3.19c1.328,0.771,2.809,1.156,4.438,1.156C132.088,24.328,133.561,23.942,134.875,23.172z"/>
	<path fill="#444444" d="M160.236,24.285c0.285,0.313,0.431,0.715,0.431,1.197c0,0.457-0.172,0.846-0.517,1.156
		c-0.342,0.315-0.771,0.473-1.282,0.473h-0.9c-1.514,0-2.87-0.363-4.069-1.094c-1.199-0.728-2.135-1.713-2.808-2.955
		c-0.67-1.242-1.006-2.646-1.006-4.222V7.406H147.3c-0.457,0-0.819-0.135-1.092-0.406c-0.271-0.271-0.408-0.605-0.408-1.007
		c0-0.429,0.138-0.778,0.408-1.05c0.271-0.271,0.635-0.406,1.092-0.406h2.785v-6.641c0-0.484,0.147-0.885,0.449-1.2
		c0.301-0.313,0.69-0.471,1.178-0.471c0.485,0,0.888,0.156,1.201,0.471s0.471,0.715,0.471,1.2v6.641h4.843
		c0.455,0,0.819,0.136,1.092,0.406c0.271,0.271,0.406,0.621,0.406,1.05c0,0.399-0.136,0.735-0.406,1.007
		c-0.271,0.271-0.637,0.406-1.092,0.406h-4.843v11.438c0,1.456,0.429,2.649,1.285,3.577c0.854,0.93,1.955,1.395,3.299,1.395h1.156
		C159.579,23.813,159.952,23.97,160.236,24.285z"/>
	<path fill="#444444" d="M186.84,4.128c0.313,0.301,0.473,0.692,0.473,1.179V25.44c0,0.485-0.158,0.889-0.473,1.199
		c-0.313,0.315-0.715,0.473-1.197,0.473c-0.486,0-0.879-0.154-1.182-0.473c-0.299-0.313-0.447-0.714-0.447-1.199v-1.455
		c-0.943,1.059-2.086,1.887-3.43,2.484c-1.342,0.6-2.799,0.897-4.369,0.897c-2.027,0-3.85-0.429-5.463-1.285
		c-1.611-0.854-2.877-2.104-3.791-3.748s-1.371-3.604-1.371-5.892V5.306c0-0.457,0.156-0.843,0.473-1.157
		c0.313-0.313,0.699-0.472,1.158-0.472c0.482,0,0.885,0.157,1.197,0.472c0.313,0.313,0.473,0.7,0.473,1.157v11.139
		c0,2.543,0.707,4.478,2.121,5.806c1.412,1.328,3.262,1.992,5.547,1.992c1.398,0,2.664-0.271,3.793-0.813
		c1.127-0.541,2.021-1.292,2.678-2.249c0.656-0.957,0.984-2.021,0.984-3.191V5.306c0-0.485,0.148-0.878,0.447-1.179
		c0.303-0.3,0.691-0.449,1.182-0.449C186.125,3.678,186.527,3.828,186.84,4.128z"/>
	<path fill="#444444" d="M208.045,4.428c1.398,0.643,2.527,1.535,3.387,2.678c0.229,0.371,0.342,0.7,0.342,0.984
		c0,0.486-0.229,0.872-0.688,1.157c-0.197,0.144-0.471,0.214-0.813,0.214c-0.601,0-1.101-0.214-1.5-0.644
		c-1.398-1.599-3.313-2.398-5.74-2.398c-1.57,0-2.826,0.32-3.771,0.964c-0.941,0.644-1.412,1.45-1.412,2.421
		c0,1.027,0.44,1.85,1.328,2.463c0.885,0.614,2.454,1.106,4.711,1.479c3.057,0.514,5.241,1.351,6.555,2.506
		c1.313,1.156,1.973,2.591,1.973,4.307c0,1.313-0.395,2.483-1.18,3.512c-0.785,1.029-1.877,1.828-3.275,2.4
		c-1.398,0.568-2.984,0.854-4.756,0.854s-3.471-0.301-5.1-0.898c-1.627-0.598-2.941-1.439-3.939-2.525
		c-0.287-0.344-0.43-0.672-0.43-0.985c0-0.483,0.229-0.914,0.686-1.285c0.346-0.258,0.699-0.385,1.072-0.385
		c0.484,0,0.898,0.198,1.24,0.6c0.688,0.8,1.594,1.414,2.723,1.843c1.127,0.429,2.377,0.645,3.748,0.645
		c1.998,0,3.498-0.344,4.498-1.026c1-0.687,1.516-1.587,1.543-2.699c0-1.028-0.5-1.886-1.5-2.569c-1-0.687-2.586-1.201-4.756-1.543
		c-2.801-0.457-4.893-1.25-6.275-2.378c-1.387-1.129-2.076-2.492-2.076-4.092c0-2.084,0.807-3.697,2.42-4.841
		c1.611-1.143,3.635-1.714,6.063-1.714C205.004,3.464,206.646,3.785,208.045,4.428z"/>
</g>
</svg>
