<?xml version="1.0" encoding="utf-8"?>
<!-- Generator: Adobe Illustrator 16.0.0, SVG Export Plug-In . SVG Version: 6.00 Build 0)  -->
<!DOCTYPE svg PUBLIC "-//W3C//DTD SVG 1.1//EN" "http://www.w3.org/Graphics/SVG/1.1/DTD/svg11.dtd">
<svg version="1.1" id="Ebene_1" xmlns="http://www.w3.org/2000/svg" xmlns:xlink="http://www.w3.org/1999/xlink" x="0px" y="0px"
	 width="198.162px" height="42.678px" viewBox="93.175 1.308 198.162 42.678" enable-background="new 93.175 1.308 198.162 42.678"
	 xml:space="preserve">
<g>
	<path fill="#FFFFFF" d="M117.111,14.69c0-5.444-3.491-11.854-3.491-11.854c-0.789-1.448-2.604-1.958-4.033-1.133L95.773,9.679
		c-1.429,0.824-2.598,2.851-2.598,4.5v16.458c0,1.649,1.169,3.675,2.598,4.5l1.574,0.908c1.429,0.825,3.702,0.726,5.053-0.225
		C102.4,35.824,117.111,25.51,117.111,14.69z"/>
	<path opacity="0.8" fill="#FFFFFF" enable-background="new    " d="M118.148,3.138c-1.431-0.825-2.065-0.26-1.416,1.257
		c0,0,2.371,5.534,2.371,10.294c0,11.08-14.479,22.354-14.479,22.354c-1.301,1.015-1.196,2.519,0.23,3.343l5.17,2.984
		c1.43,0.823,3.768,0.823,5.195,0l14.256-8.23c1.428-0.825,2.598-2.851,2.598-4.5V14.18c0-1.65-1.17-3.676-2.598-4.5L118.148,3.138z
		"/>
</g>
<g>
	<path fill="#FFFFFF" d="M153.516,11.427c1.398,0.643,2.527,1.535,3.385,2.678c0.229,0.371,0.344,0.7,0.344,0.984
		c0,0.486-0.229,0.872-0.688,1.157c-0.199,0.144-0.471,0.214-0.813,0.214c-0.603,0-1.103-0.214-1.5-0.645
		c-1.398-1.599-3.313-2.397-5.74-2.397c-1.57,0-2.826,0.319-3.771,0.964c-0.939,0.644-1.412,1.45-1.412,2.421
		c0,1.027,0.441,1.85,1.328,2.463c0.887,0.614,2.455,1.106,4.711,1.479c3.059,0.514,5.242,1.351,6.557,2.506
		c1.313,1.154,1.972,2.591,1.972,4.307c0,1.313-0.394,2.483-1.179,3.512c-0.785,1.029-1.877,1.828-3.276,2.4
		c-1.397,0.569-2.983,0.854-4.757,0.854c-1.771,0-3.469-0.3-5.098-0.897c-1.627-0.599-2.94-1.44-3.94-2.526
		c-0.285-0.344-0.429-0.672-0.429-0.984c0-0.483,0.229-0.914,0.687-1.285c0.342-0.258,0.698-0.385,1.069-0.385
		c0.486,0,0.898,0.197,1.242,0.6c0.687,0.8,1.592,1.414,2.722,1.843c1.129,0.429,2.379,0.645,3.747,0.645c2,0,3.5-0.344,4.5-1.027
		c0.998-0.686,1.515-1.586,1.541-2.698c0-1.027-0.5-1.886-1.498-2.568c-1-0.688-2.586-1.201-4.756-1.543
		c-2.801-0.457-4.895-1.25-6.276-2.379c-1.386-1.129-2.078-2.491-2.078-4.092c0-2.084,0.81-3.696,2.422-4.841
		c1.613-1.143,3.636-1.714,6.063-1.714C150.475,10.463,152.116,10.784,153.516,11.427z"/>
	<path fill="#FFFFFF" d="M175.021,31.284c0.285,0.313,0.429,0.715,0.429,1.197c0,0.457-0.171,0.846-0.515,1.156
		c-0.345,0.315-0.771,0.473-1.285,0.473h-0.899c-1.515,0-2.869-0.363-4.066-1.094c-1.201-0.728-2.139-1.713-2.809-2.955
		c-0.672-1.242-1.008-2.646-1.008-4.222V14.405h-2.783c-0.457,0-0.82-0.135-1.094-0.405c-0.271-0.271-0.406-0.605-0.406-1.007
		c0-0.43,0.137-0.778,0.406-1.051c0.271-0.271,0.637-0.405,1.094-0.405h2.783V4.895c0-0.483,0.149-0.885,0.45-1.2
		c0.3-0.313,0.69-0.471,1.179-0.471c0.485,0,0.885,0.156,1.198,0.471c0.313,0.313,0.472,0.716,0.472,1.2v6.642h4.842
		c0.457,0,0.82,0.136,1.094,0.405c0.271,0.271,0.406,0.621,0.406,1.051c0,0.398-0.137,0.734-0.406,1.007
		c-0.27,0.271-0.637,0.405-1.094,0.405h-4.842v11.438c0,1.457,0.432,2.65,1.285,3.578c0.856,0.929,1.957,1.394,3.299,1.394h1.158
		C174.363,30.813,174.736,30.969,175.021,31.284z"/>
	<path fill="#FFFFFF" d="M194.236,10.891c0.699,0.313,1.05,0.757,1.05,1.328c0,0.171-0.015,0.3-0.043,0.386
		c-0.113,0.399-0.293,0.671-0.535,0.813c-0.242,0.144-0.578,0.214-1.006,0.214c-0.259,0-0.701-0.027-1.328-0.085
		c-0.229-0.027-0.572-0.043-1.027-0.043c-2.143,0-3.893,0.572-5.248,1.715s-2.035,2.628-2.035,4.455v12.81
		c0,0.516-0.145,0.914-0.43,1.199c-0.283,0.287-0.687,0.43-1.197,0.43c-0.514,0-0.914-0.143-1.199-0.43
		c-0.285-0.285-0.43-0.687-0.43-1.199V12.305c0-0.515,0.145-0.914,0.43-1.2c0.285-0.285,0.686-0.43,1.199-0.43
		c0.516,0,0.914,0.145,1.197,0.43c0.285,0.286,0.43,0.688,0.43,1.2v1.885c0.828-1.2,1.887-2.127,3.172-2.785
		c1.285-0.655,2.67-0.983,4.154-0.983C192.586,10.42,193.536,10.577,194.236,10.891z"/>
	<path fill="#FFFFFF" d="M215.441,12.027c1.813,1.043,3.242,2.479,4.285,4.308s1.563,3.854,1.563,6.083v10.065
		c0,0.457-0.156,0.846-0.474,1.156c-0.313,0.315-0.713,0.473-1.196,0.473c-0.486,0-0.888-0.148-1.201-0.449s-0.472-0.69-0.472-1.18
		v-2.568c-1,1.371-2.271,2.447-3.813,3.232c-1.543,0.787-3.24,1.18-5.098,1.18c-2.173,0-4.136-0.521-5.892-1.563
		c-1.758-1.043-3.146-2.472-4.156-4.285c-1.014-1.813-1.521-3.834-1.521-6.063c0-2.229,0.521-4.255,1.563-6.083
		c1.043-1.828,2.473-3.265,4.285-4.308c1.813-1.042,3.834-1.563,6.063-1.563C211.607,10.463,213.627,10.985,215.441,12.027z
		 M213.792,30.171c1.313-0.771,2.352-1.836,3.106-3.19c0.756-1.355,1.136-2.877,1.136-4.563c0-1.687-0.38-3.206-1.136-4.563
		c-0.758-1.355-1.793-2.427-3.106-3.213c-1.313-0.785-2.783-1.179-4.412-1.179c-1.627,0-3.104,0.394-4.435,1.179
		c-1.327,0.786-2.37,1.856-3.127,3.213c-0.758,1.357-1.137,2.877-1.137,4.563c0,1.688,0.379,3.206,1.137,4.563
		c0.757,1.354,1.8,2.42,3.127,3.19c1.328,0.771,2.808,1.156,4.435,1.156C211.008,31.327,212.479,30.942,213.792,30.171z"/>
	<path fill="#FFFFFF" d="M239.154,31.284c0.285,0.313,0.429,0.715,0.429,1.197c0,0.457-0.17,0.846-0.515,1.156
		c-0.342,0.315-0.771,0.473-1.284,0.473h-0.9c-1.514,0-2.867-0.363-4.066-1.094c-1.199-0.728-2.137-1.713-2.809-2.955
		S229,27.415,229,25.841V14.405h-2.785c-0.457,0-0.818-0.135-1.092-0.405c-0.271-0.271-0.408-0.605-0.408-1.007
		c0-0.43,0.139-0.778,0.408-1.051c0.271-0.271,0.635-0.405,1.092-0.405H229V4.895c0-0.483,0.147-0.885,0.449-1.2
		c0.301-0.313,0.69-0.471,1.178-0.471c0.486,0,0.887,0.156,1.201,0.471c0.313,0.313,0.471,0.716,0.471,1.2v6.642h4.842
		c0.457,0,0.82,0.136,1.092,0.405c0.271,0.271,0.408,0.621,0.408,1.051c0,0.398-0.137,0.734-0.408,1.007
		c-0.271,0.271-0.635,0.405-1.092,0.405h-4.842v11.438c0,1.457,0.43,2.65,1.285,3.578c0.854,0.929,1.955,1.394,3.299,1.394h1.156
		C238.497,30.813,238.868,30.969,239.154,31.284z"/>
	<path fill="#FFFFFF" d="M265.758,11.127c0.313,0.301,0.473,0.691,0.473,1.179V32.44c0,0.485-0.158,0.889-0.473,1.199
		c-0.313,0.315-0.713,0.473-1.197,0.473s-0.879-0.154-1.18-0.473c-0.301-0.313-0.449-0.714-0.449-1.199v-1.455
		c-0.943,1.059-2.086,1.887-3.428,2.484c-1.344,0.6-2.801,0.897-4.371,0.897c-2.027,0-3.848-0.43-5.461-1.285
		c-1.613-0.854-2.879-2.104-3.793-3.748c-0.914-1.645-1.369-3.604-1.369-5.893V12.305c0-0.457,0.156-0.843,0.471-1.157
		c0.314-0.313,0.699-0.473,1.158-0.473c0.484,0,0.885,0.158,1.197,0.473c0.313,0.313,0.473,0.7,0.473,1.157v11.139
		c0,2.543,0.707,4.479,2.121,5.807c1.412,1.328,3.262,1.992,5.547,1.992c1.398,0,2.664-0.271,3.793-0.813
		c1.127-0.541,2.021-1.291,2.678-2.248s0.984-2.021,0.984-3.191V12.305c0-0.485,0.148-0.878,0.449-1.179
		c0.301-0.3,0.691-0.449,1.18-0.449C265.045,10.677,265.445,10.827,265.758,11.127z"/>
	<path fill="#FFFFFF" d="M286.965,11.427c1.396,0.643,2.527,1.535,3.385,2.678c0.229,0.371,0.342,0.7,0.342,0.984
		c0,0.486-0.229,0.872-0.686,1.157c-0.199,0.144-0.471,0.214-0.813,0.214c-0.603,0-1.103-0.214-1.5-0.645
		c-1.399-1.599-3.313-2.397-5.739-2.397c-1.572,0-2.828,0.319-3.771,0.964c-0.94,0.644-1.414,1.45-1.414,2.421
		c0,1.027,0.442,1.85,1.328,2.463c0.885,0.614,2.457,1.106,4.713,1.479c3.058,0.514,5.239,1.351,6.556,2.506
		c1.313,1.154,1.971,2.591,1.971,4.307c0,1.313-0.394,2.483-1.178,3.512c-0.785,1.029-1.88,1.828-3.277,2.4
		c-1.398,0.569-2.984,0.854-4.756,0.854c-1.772,0-3.472-0.3-5.099-0.897c-1.629-0.599-2.94-1.44-3.94-2.526
		c-0.285-0.344-0.431-0.672-0.431-0.984c0-0.483,0.23-0.914,0.688-1.285c0.344-0.258,0.699-0.385,1.07-0.385
		c0.483,0,0.897,0.197,1.241,0.6c0.687,0.8,1.593,1.414,2.722,1.843s2.379,0.645,3.748,0.645c2,0,3.5-0.344,4.5-1.027
		c0.998-0.686,1.514-1.586,1.541-2.698c0-1.027-0.5-1.886-1.498-2.568c-1-0.688-2.586-1.201-4.756-1.543
		c-2.802-0.457-4.894-1.25-6.277-2.379c-1.385-1.129-2.076-2.491-2.076-4.092c0-2.084,0.807-3.696,2.42-4.841
		c1.613-1.143,3.635-1.714,6.063-1.714C283.922,10.463,285.564,10.784,286.965,11.427z"/>
</g>
</svg>
