<?xml version="1.0" encoding="utf-8"?>
<!-- Generator: Adobe Illustrator 24.2.2, SVG Export Plug-In . SVG Version: 6.00 Build 0)  -->
<svg version="1.1" id="Ebene_1" xmlns="http://www.w3.org/2000/svg" xmlns:xlink="http://www.w3.org/1999/xlink" x="0px" y="0px"
	 viewBox="0 0 24 24" style="enable-background:new 0 0 24 24;" xml:space="preserve">
<style type="text/css">
	.st0{fill-rule:evenodd;clip-rule:evenodd;fill:#758CA3;}
</style>
<path class="st0" d="M24,18.5v-12c0-1.7-1.3-3-3-3H3c-1.7,0-3,1.3-3,3v12c0,1.7,1.3,3,3,3h2c0.6,0,1-0.4,1-1s-0.4-1-1-1H3
	c-0.6,0-1-0.4-1-1v-7.9c0,0,0-0.1,0-0.1v-4c0-0.6,0.4-1,1-1h18c0.6,0,1,0.4,1,1v12c0,0.6-0.4,1-1,1h-2c-0.6,0-1,0.4-1,1s0.4,1,1,1h2
	C22.7,21.5,24,20.1,24,18.5z"/>
<path class="st0" d="M9.2,16.2l1.8-1.8v8.1c0,0.6,0.4,1,1,1s1-0.4,1-1v-8.1l1.8,1.8c0.4,0.4,1,0.5,1.4,0.1c0.4-0.4,0.5-1,0.1-1.4
	c0,0-0.1-0.1-0.1-0.1l-3.5-3.5c-0.4-0.4-1-0.4-1.4,0c0,0,0,0,0,0l-3.5,3.5c-0.4,0.4-0.3,1.1,0.1,1.4C8.2,16.6,8.8,16.6,9.2,16.2z"/>
</svg>
